<?xml version="1.0" standalone="no"?>
<!DOCTYPE svg PUBLIC "-//W3C//DTD SVG 20010904//EN"
 "http://www.w3.org/TR/2001/REC-SVG-20010904/DTD/svg10.dtd">
<svg version="1.0" xmlns="http://www.w3.org/2000/svg"
 width="100.000000pt" height="100.000000pt" viewBox="0 0 100.000000 100.000000"
 preserveAspectRatio="xMidYMid meet">
<metadata>
Created by potrace 1.14, written by Peter Selinger 2001-2017
</metadata>
<g transform="translate(0.000000,100.000000) scale(0.100000,-0.100000)"
fill="#000000" stroke="none">
<path d="M430 950 c-102 -40 -162 -127 -163 -236 0 -82 25 -132 117 -232 105
-113 151 -174 172 -226 11 -25 22 -46 26 -46 14 0 49 90 53 138 8 73 -16 131
-101 246 -41 55 -74 110 -74 122 0 46 62 70 93 36 23 -25 21 -57 -4 -81 l-21
-19 56 -76 c31 -42 60 -76 65 -76 15 0 80 78 96 116 21 51 25 121 9 174 -38
131 -198 209 -324 160z"/>
<path d="M211 723 c-19 -97 -19 -119 -7 -185 15 -80 46 -126 147 -218 85 -77
121 -125 146 -194 18 -49 21 -63 23 -96 1 -23 2 -23 9 -5 5 11 7 55 5 98 -4
108 -38 176 -148 294 -130 141 -161 200 -158 306 1 31 0 57 -2 57 -2 0 -8 -26
-15 -57z"/>
</g>
</svg>
